<?xml version="1.0" encoding="iso-8859-1"?>
<!-- Generator: Adobe Illustrator 19.0.0, SVG Export Plug-In . SVG Version: 6.00 Build 0)  -->
<svg version="1.1" id="Layer_1" xmlns="http://www.w3.org/2000/svg" xmlns:xlink="http://www.w3.org/1999/xlink" x="0px" y="0px"
	 viewBox="0 0 512 512" style="enable-background:new 0 0 512 512;" xml:space="preserve">
<g style="fill : #27a776;">
	<g>
		<path  d="M458.667,101.333V48H0v352h170.667v32h-37.333v32h192v-32H288v-32h170.667v-74.667H512v-224H458.667z M256,432h-53.333
			v-32H256V432z M426.667,368H32v-32h394.667V368z M480,293.333h-85.333V256h-32v48H32V80h394.667v21.333h-64v69.333h32v-37.333H480
			V293.333z"/>
	</g>
</g>
<g>
	<g >
		<polygon points="474.667,213.329 426.089,164.739 426.089,197.333 128.578,197.333 128.578,164.739 80,213.329 128.578,261.932 
			128.578,229.333 426.089,229.333 426.089,261.932 		"/>
	</g>
</g>
<g>
</g>
<g>
</g>
<g>
</g>
<g>
</g>
<g>
</g>
<g>
</g>
<g>
</g>
<g>
</g>
<g>
</g>
<g>
</g>
<g>
</g>
<g>
</g>
<g>
</g>
<g>
</g>
<g>
</g>
</svg>
